<svg width="183" height="40" viewBox="0 0 183 40" fill="none" xmlns="http://www.w3.org/2000/svg">
<path d="M60.968 17.464V23.896C60.968 24.344 61.072 24.672 61.28 24.88C61.504 25.072 61.872 25.168 62.384 25.168H63.944V28H61.832C59 28 57.584 26.624 57.584 23.872V17.464H56V14.704H57.584V11.416H60.968V14.704H63.944V17.464H60.968Z" fill="white"/>
<path d="M115.457 14.512C117.089 14.512 118.401 15.016 119.393 16.024C120.401 17.016 120.905 18.408 120.905 20.2V28H117.545V20.656C117.545 19.616 117.281 18.824 116.753 18.28C116.225 17.72 115.505 17.44 114.593 17.44C113.681 17.44 112.953 17.72 112.409 18.28C111.881 18.824 111.617 19.616 111.617 20.656V28H108.257V20.656C108.257 19.616 107.993 18.824 107.465 18.28C106.937 17.72 106.217 17.44 105.305 17.44C104.377 17.44 103.641 17.72 103.097 18.28C102.569 18.824 102.305 19.616 102.305 20.656V28H98.9451V14.704H102.305V16.312C102.737 15.752 103.289 15.312 103.961 14.992C104.649 14.672 105.401 14.512 106.217 14.512C107.257 14.512 108.185 14.736 109.001 15.184C109.817 15.616 110.449 16.24 110.897 17.056C111.329 16.288 111.953 15.672 112.769 15.208C113.601 14.744 114.497 14.512 115.457 14.512Z" fill="white"/>
<path d="M129.998 28.216C128.718 28.216 127.566 27.936 126.542 27.376C125.518 26.8 124.71 25.992 124.118 24.952C123.542 23.912 123.254 22.712 123.254 21.352C123.254 19.992 123.55 18.792 124.142 17.752C124.75 16.712 125.574 15.912 126.614 15.352C127.654 14.776 128.814 14.488 130.094 14.488C131.374 14.488 132.534 14.776 133.574 15.352C134.614 15.912 135.43 16.712 136.022 17.752C136.63 18.792 136.934 19.992 136.934 21.352C136.934 22.712 136.622 23.912 135.998 24.952C135.39 25.992 134.558 26.8 133.502 27.376C132.462 27.936 131.294 28.216 129.998 28.216ZM129.998 25.288C130.606 25.288 131.174 25.144 131.702 24.856C132.246 24.552 132.678 24.104 132.998 23.512C133.318 22.92 133.478 22.2 133.478 21.352C133.478 20.088 133.142 19.12 132.47 18.448C131.814 17.76 131.006 17.416 130.046 17.416C129.086 17.416 128.278 17.76 127.622 18.448C126.982 19.12 126.662 20.088 126.662 21.352C126.662 22.616 126.974 23.592 127.598 24.28C128.238 24.952 129.038 25.288 129.998 25.288Z" fill="white"/>
<path d="M146.766 14.512C148.35 14.512 149.63 15.016 150.606 16.024C151.582 17.016 152.07 18.408 152.07 20.2V28H148.71V20.656C148.71 19.6 148.446 18.792 147.918 18.232C147.39 17.656 146.67 17.368 145.758 17.368C144.83 17.368 144.094 17.656 143.55 18.232C143.022 18.792 142.758 19.6 142.758 20.656V28H139.398V14.704H142.758V16.36C143.206 15.784 143.774 15.336 144.462 15.016C145.166 14.68 145.934 14.512 146.766 14.512Z" fill="white"/>
<path d="M167.625 21.064C167.625 21.544 167.593 21.976 167.529 22.36H157.809C157.889 23.32 158.225 24.072 158.817 24.616C159.409 25.16 160.137 25.432 161.001 25.432C162.249 25.432 163.137 24.896 163.665 23.824H167.289C166.905 25.104 166.169 26.16 165.081 26.992C163.993 27.808 162.657 28.216 161.073 28.216C159.793 28.216 158.641 27.936 157.617 27.376C156.609 26.8 155.817 25.992 155.241 24.952C154.681 23.912 154.401 22.712 154.401 21.352C154.401 19.976 154.681 18.768 155.241 17.728C155.801 16.688 156.585 15.888 157.593 15.328C158.601 14.768 159.761 14.488 161.073 14.488C162.337 14.488 163.465 14.76 164.457 15.304C165.465 15.848 166.241 16.624 166.785 17.632C167.345 18.624 167.625 19.768 167.625 21.064ZM164.145 20.104C164.129 19.24 163.817 18.552 163.209 18.04C162.601 17.512 161.857 17.248 160.977 17.248C160.145 17.248 159.441 17.504 158.865 18.016C158.305 18.512 157.961 19.208 157.833 20.104H164.145Z" fill="white"/>
<path d="M182.798 14.704L174.566 34.288H170.99L173.87 27.664L168.542 14.704H172.31L175.742 23.992L179.222 14.704H182.798Z" fill="white"/>
<path d="M60.968 17.464V23.896C60.968 24.344 61.072 24.672 61.28 24.88C61.504 25.072 61.872 25.168 62.384 25.168H63.944V28H61.832C59 28 57.584 26.624 57.584 23.872V17.464H56V14.704H57.584V11.416H60.968V14.704H63.944V17.464H60.968Z" fill="white"/>
<path d="M82.512 14.512C84.144 14.512 85.456 15.016 86.448 16.024C87.456 17.016 87.96 18.408 87.96 20.2V28H84.6V20.656C84.6 19.616 84.336 18.824 83.808 18.28C83.28 17.72 82.56 17.44 81.648 17.44C80.736 17.44 80.008 17.72 79.464 18.28C78.936 18.824 78.672 19.616 78.672 20.656V28H75.312V20.656C75.312 19.616 75.048 18.824 74.52 18.28C73.992 17.72 73.272 17.44 72.36 17.44C71.432 17.44 70.696 17.72 70.152 18.28C69.624 18.824 69.36 19.616 69.36 20.656V28H66V14.704H69.36V16.312C69.792 15.752 70.344 15.312 71.016 14.992C71.704 14.672 72.456 14.512 73.272 14.512C74.312 14.512 75.24 14.736 76.056 15.184C76.872 15.616 77.504 16.24 77.952 17.056C78.384 16.288 79.008 15.672 79.824 15.208C80.656 14.744 81.552 14.512 82.512 14.512Z" fill="white"/>
<path d="M34.1422 5.85781C30.3647 2.08031 25.3422 0 20 0C14.6578 0 9.63531 2.08031 5.85781 5.85781C2.08031 9.63531 0 14.6578 0 20C0 25.3422 2.08039 30.3646 5.85781 34.1422C9.63523 37.9198 14.6578 40 20 40C25.3422 40 30.3647 37.9197 34.1422 34.1422C37.9197 30.3647 40 25.3422 40 20C40 14.6578 37.9196 9.63539 34.1422 5.85781Z" fill="#33CC95"/>
<g clip-path="url(#clip0_35212_417)">
<path d="M20.5714 8V33.1429" stroke="white" stroke-width="2" stroke-linecap="round" stroke-linejoin="round"/>
<path d="M26.2857 12.5714H17.7143C16.6534 12.5714 15.636 12.9929 14.8859 13.743C14.1357 14.4931 13.7143 15.5106 13.7143 16.5714C13.7143 17.6323 14.1357 18.6497 14.8859 19.3999C15.636 20.15 16.6534 20.5714 17.7143 20.5714H23.4286C24.4894 20.5714 25.5069 20.9929 26.257 21.743C27.0072 22.4932 27.4286 23.5106 27.4286 24.5714C27.4286 25.6323 27.0072 26.6497 26.257 27.3999C25.5069 28.15 24.4894 28.5714 23.4286 28.5714H13.7143" stroke="white" stroke-width="2" stroke-linecap="round" stroke-linejoin="round"/>
</g>
<defs>
<clipPath id="clip0_35212_417">
<rect width="27.4286" height="27.4286" fill="white" transform="translate(6.85715 6.85714)"/>
</clipPath>
</defs>
</svg>
